<svg width="32" height="32" viewBox="0 0 32 32" fill="none" xmlns="http://www.w3.org/2000/svg">
<g clip-path="url(#clip0_114_17)">
<path d="M24.5 -9.03354e-08L7.5 -2.76537e-08C3.35786 -1.2381e-08 1.2381e-08 3.35786 2.76537e-08 7.5L9.03354e-08 24.5C1.05608e-07 28.6421 3.35786 32 7.5 32L24.5 32C28.6421 32 32 28.6421 32 24.5L32 7.5C32 3.35786 28.6421 -1.05608e-07 24.5 -9.03354e-08Z" fill="#6F2D91"/>
<path d="M23.0894 27.2106L26.7481 27.2106C26.8807 27.2106 27.0079 27.158 27.1016 27.0642C27.1954 26.9705 27.2481 26.8433 27.2481 26.7108L27.25 18.9805C27.25 14.9401 26.3794 11.8345 21.6577 11.8345C19.8629 11.7678 18.1702 12.693 17.2569 14.238C17.2524 14.2455 17.2456 14.2513 17.2375 14.2546C17.2294 14.2579 17.2205 14.2584 17.2121 14.2562C17.2036 14.2539 17.1962 14.2489 17.1908 14.242C17.1855 14.2351 17.1826 14.2266 17.1825 14.2179L17.1825 12.7075C17.1825 12.5749 17.1298 12.4477 17.0361 12.3539C16.9423 12.2602 16.8151 12.2075 16.6825 12.2075L13.2104 12.2075C13.0778 12.2075 12.9506 12.2602 12.8568 12.3539C12.7631 12.4477 12.7104 12.5749 12.7104 12.7075L12.7104 26.71C12.7104 26.8426 12.7631 26.9698 12.8568 27.0636C12.9506 27.1573 13.0778 27.21 13.2104 27.21L16.8689 27.21C17.0015 27.21 17.1287 27.1573 17.2224 27.0636C17.3162 26.9698 17.3689 26.8426 17.3689 26.71L17.3689 19.7884C17.3689 17.8313 17.7401 15.9359 20.1665 15.9359C22.5584 15.9359 22.5894 18.1754 22.5894 19.9151L22.5894 26.7106C22.5894 26.8432 22.6421 26.9704 22.7358 27.0642C22.8296 27.1579 22.9568 27.2106 23.0894 27.2106ZM4.75 7.4535C4.75 8.9365 5.97088 10.1567 7.454 10.1567C8.93675 10.1566 10.1569 8.93563 10.1569 7.45288C10.1566 5.97013 8.93637 4.75 7.4535 4.75C5.97025 4.75 4.75 5.9705 4.75 7.4535ZM5.61988 27.2106L9.28325 27.2106C9.41586 27.2106 9.54304 27.1579 9.6368 27.0642C9.73057 26.9704 9.78325 26.8432 9.78325 26.7106L9.78325 12.7075C9.78325 12.5749 9.73057 12.4477 9.6368 12.3539C9.54304 12.2602 9.41586 12.2075 9.28325 12.2075L5.61987 12.2075C5.48727 12.2075 5.36009 12.2602 5.26632 12.3539C5.17255 12.4477 5.11987 12.5749 5.11987 12.7075L5.11988 26.7106C5.11988 26.8432 5.17255 26.9704 5.26632 27.0642C5.36009 27.1579 5.48727 27.2106 5.61988 27.2106Z" fill="#6F2D91"/>
<path d="M8 12.6462C8 17.8668 10.2997 28.7856 15.7305 28.7856C21.1614 28.7856 23.4611 17.8668 23.4611 12.6462H8Z" fill="#BA68C8"/>
<path opacity="0.8" d="M8 12.6462C8 17.8668 10.2997 28.7856 15.7305 28.7856C21.1614 28.7856 23.4611 17.8668 23.4611 12.6462H8Z" fill="white"/>
<path d="M23.4549 12.6462C23.2349 15.7932 22.3719 17.9312 21.0069 18.6872C20.4368 19.0033 19.6333 19.0045 18.9417 18.6824C17.7822 18.1439 16.9897 16.8458 16.8669 16.2247L16.5691 16.283C16.7064 16.9795 17.5512 18.37 18.8141 18.9571C19.2006 19.137 19.7452 19.2233 20.111 19.2233C20.4781 19.2233 20.8294 19.1333 21.1551 18.9522C22.0911 18.4344 22.8046 17.3308 23.2555 15.747C23.3941 14.602 23.4622 13.5396 23.4622 12.6462H23.4549Z" fill="#BA68C8"/>
<path d="M21.0752 15.5974C21.0752 21.055 20.1745 25.1366 18.3926 27.7961C18.6162 27.6186 18.8326 27.4205 19.0404 27.2029C20.5537 24.5082 21.3183 20.6283 21.3183 15.5974H21.0752Z" fill="#BA68C8"/>
<path opacity="0.2" d="M15.2188 26.5855C12.8595 24.4475 12.4122 18.2047 13.0771 16.8385V12.6462H8C8 17.8668 10.2997 28.7856 15.7305 28.7856C17.555 28.7856 19.0245 27.5531 20.1744 25.7189C20.1744 25.7189 17.5781 28.7224 15.2188 26.5855Z" fill="#BA68C8"/>
<path d="M21.1966 15.8017C18.1773 17.5447 13.2825 17.5447 10.2632 15.8017C8.75482 14.9302 8 13.7876 8 12.6451C8 11.5025 8.75482 10.3599 10.2645 9.48842C13.2837 7.7454 18.1785 7.7454 21.1978 9.48842C22.7075 10.3599 23.4623 11.5025 23.4623 12.6451C23.4611 13.7876 22.7063 14.9302 21.1966 15.8017Z" fill="#BA68C8"/>
<path opacity="0.6" d="M21.1966 15.8017C18.1773 17.5447 13.2825 17.5447 10.2632 15.8017C8.75482 14.9302 8 13.7876 8 12.6451C8 11.5025 8.75482 10.3599 10.2645 9.48842C13.2837 7.7454 18.1785 7.7454 21.1978 9.48842C22.7075 10.3599 23.4623 11.5025 23.4623 12.6451C23.4611 13.7876 22.7063 14.9302 21.1966 15.8017Z" fill="white"/>
<path opacity="0.3" d="M21.2805 13.6201C22.3051 12.5979 22.5312 11.4335 22.406 10.3942C22.0791 10.0709 21.6767 9.76701 21.1966 9.48988C18.1773 7.74686 13.2825 7.74686 10.2632 9.48988C8.75482 10.3614 8 11.504 8 12.6453C8 13.7879 8.75482 14.9304 10.2645 15.8019C12.8364 17.2873 16.7698 17.5061 19.7453 16.4607C16.7066 17.3918 12.7623 16.5616 12.4256 14.9171C14.2501 15.684 18.8981 15.9964 21.2805 13.6201Z" fill="#BA68C8"/>
<path d="M21.9661 10.2675C21.9661 9.34612 21.3571 8.42478 20.1392 7.72222C17.7046 6.3159 13.7554 6.3159 11.3208 7.72222C10.1041 8.42478 9.49512 9.34612 9.49512 10.2675C9.49512 10.4583 9.49512 11.2168 9.49512 11.4076C9.49512 12.3289 10.1041 13.2503 11.322 13.9528C13.7566 15.3592 17.7058 15.3592 20.1404 13.9528C21.3583 13.2503 21.9673 12.3289 21.9673 11.4076C21.9661 11.2168 21.9661 10.4583 21.9661 10.2675Z" fill="#37474F"/>
<path d="M16.7103 14.9628C15.2104 14.9932 13.2607 14.3101 13.7566 12.5476V6.85303C12.8669 7.02441 12.0306 7.3137 11.322 7.7221C10.1041 8.42466 9.49512 9.346 9.49512 10.2673C9.49512 10.4582 9.49512 11.2166 9.49512 11.4075C9.49512 12.3288 10.1041 13.2502 11.322 13.9527C12.7891 14.7999 14.8056 15.1366 16.7103 14.9628Z" fill="#263238"/>
<path d="M20.1404 12.8127C17.7058 14.219 13.7566 14.219 11.322 12.8127C10.1041 12.1102 9.49512 11.1888 9.49512 10.2675C9.49512 9.34612 10.1041 8.42478 11.322 7.72222C13.7566 6.3159 17.7058 6.3159 20.1404 7.72222C21.3583 8.42478 21.9673 9.34612 21.9673 10.2675C21.9661 11.1888 21.3571 12.1102 20.1404 12.8127Z" fill="#263238"/>
<path d="M22.7136 9.98179C22.7136 6.12625 19.5873 3 15.7306 3C11.8738 3 8.74877 6.12625 8.74756 9.98179C8.74756 11.0137 9.42945 12.0457 10.7932 12.8333C13.5196 14.4074 17.9416 14.4074 20.6679 12.8333C22.0317 12.0457 22.7136 11.0137 22.7136 9.98179Z" fill="#BA68C8"/>
<path opacity="0.8" d="M22.7136 9.98179C22.7136 6.12625 19.5873 3 15.7306 3C11.8738 3 8.74877 6.12625 8.74756 9.98179C8.74756 11.0137 9.42945 12.0457 10.7932 12.8333C13.5196 14.4074 17.9416 14.4074 20.6679 12.8333C22.0317 12.0457 22.7136 11.0137 22.7136 9.98179Z" fill="white"/>
<path opacity="0.3" d="M21.7959 11.9803C18.164 14.218 13.3701 13.981 13.2619 11.6047C13.1878 9.98323 12.3515 8.63039 11.2612 8.00319C11.3718 5.44944 13.0662 3.42686 14.8967 3.05371L14.8955 3.05249C11.4338 3.46454 8.74878 6.40847 8.74878 9.98202C8.74878 11.014 9.43067 12.0459 10.7945 12.8336C13.5208 14.4076 17.9428 14.4076 20.6691 12.8336C20.9851 12.6512 21.2635 12.4555 21.5054 12.2489L21.7862 11.99C21.7898 11.9864 21.7922 11.9839 21.7959 11.9803Z" fill="#BA68C8"/>
<path d="M22.5021 8.27417C22.1873 7.02342 21.5358 5.90638 20.6485 5.02637C20.6497 5.75323 20.1708 6.48131 19.2094 7.03558C18.0765 7.68951 16.5292 7.95814 15.056 7.84145C14.3887 7.78797 13.7943 8.24864 13.6874 8.90865C13.5804 9.56988 13.5148 10.2104 13.4771 10.7805C13.4309 11.46 13.9293 12.0616 14.6075 12.1273C16.6921 12.3291 18.9091 11.9656 20.5172 11.0358C21.8397 10.2737 22.5009 9.27452 22.5021 8.27417Z" fill="#455A64"/>
<path d="M16.3624 10.4363C16.343 10.4363 16.3235 10.4351 16.3041 10.4302C16.1388 10.3986 16.0318 10.2394 16.0634 10.0741C16.1886 9.42743 16.7574 8.95825 17.4175 8.95825C17.8769 8.95825 18.3035 9.18555 18.5612 9.566C18.6548 9.70456 18.6184 9.89418 18.4798 9.98778C18.3412 10.0814 18.1516 10.0449 18.058 9.90634C17.9146 9.69363 17.6751 9.566 17.4187 9.566C17.0492 9.566 16.7307 9.82855 16.6614 10.1895C16.6322 10.3354 16.5046 10.4363 16.3624 10.4363Z" fill="#BA68C8"/>
<path opacity="0.3" d="M16.3624 10.4363C16.343 10.4363 16.3235 10.4351 16.3041 10.4302C16.1388 10.3986 16.0318 10.2394 16.0634 10.0741C16.1886 9.42743 16.7574 8.95825 17.4175 8.95825C17.8769 8.95825 18.3035 9.18555 18.5612 9.566C18.6548 9.70456 18.6184 9.89418 18.4798 9.98778C18.3412 10.0814 18.1516 10.0449 18.058 9.90634C17.9146 9.69363 17.6751 9.566 17.4187 9.566C17.0492 9.566 16.7307 9.82855 16.6614 10.1895C16.6322 10.3354 16.5046 10.4363 16.3624 10.4363Z" fill="white"/>
<path d="M21.9526 6.81421C21.5004 7.00747 21.1723 7.43411 21.1224 7.94462C21.1054 8.11114 21.2282 8.26065 21.3947 8.27645C21.4141 8.27888 21.4336 8.27888 21.453 8.27645C21.5953 8.26308 21.7119 8.15125 21.7265 8.00418C21.7557 7.71367 21.9453 7.47422 22.2054 7.36847C22.1301 7.18007 22.045 6.99532 21.9526 6.81421Z" fill="#BA68C8"/>
<path opacity="0.3" d="M21.9526 6.81421C21.5004 7.00747 21.1723 7.43411 21.1224 7.94462C21.1054 8.11114 21.2282 8.26065 21.3947 8.27645C21.4141 8.27888 21.4336 8.27888 21.453 8.27645C21.5953 8.26308 21.7119 8.15125 21.7265 8.00418C21.7557 7.71367 21.9453 7.47422 22.2054 7.36847C22.1301 7.18007 22.045 6.99532 21.9526 6.81421Z" fill="white"/>
<g opacity="0.1">
<path d="M19.2505 7.01122C19.8485 8.11368 20.3578 9.43006 20.6775 10.9397C20.968 10.761 21.2232 10.5702 21.4445 10.3696C21.1625 9.30243 20.6763 7.86572 19.8801 6.5542C19.7014 6.71586 19.4912 6.86901 19.2505 7.01122Z" fill="white"/>
<path d="M18.6892 7.29688C18.2625 7.48285 17.797 7.62263 17.3108 7.71865C17.5588 9.03746 17.7301 10.5082 17.7933 11.9972C18.5008 11.8671 19.1778 11.6678 19.794 11.3992C19.5716 10.2092 19.2191 8.70442 18.6892 7.29688Z" fill="white"/>
</g>
</g>
<defs>
<clipPath id="clip0_114_17">
<rect width="32" height="32" fill="white"/>
</clipPath>
</defs>
</svg>
